<mxfile host="app.diagrams.net" modified="2024-01-20T16:07:10.773Z" agent="Mozilla/5.0 (Macintosh; Intel Mac OS X 10_15_7) AppleWebKit/605.1.15 (KHTML, like Gecko) Version/16.6.1 Safari/605.1.15" etag="cS_FbVrDUO4y2JFFRaMK" version="22.1.21" type="github">
  <diagram id="R2lEEEUBdFMjLlhIrx00" name="Page-1">
    <mxGraphModel dx="1194" dy="647" grid="1" gridSize="10" guides="1" tooltips="1" connect="1" arrows="1" fold="1" page="1" pageScale="1" pageWidth="850" pageHeight="1100" math="0" shadow="0" extFonts="Permanent Marker^https://fonts.googleapis.com/css?family=Permanent+Marker">
      <root>
        <mxCell id="0" />
        <mxCell id="1" parent="0" />
        <mxCell id="FvkrAukKr_MfbtOGyrqa-1" value="Cliente" style="whiteSpace=wrap;html=1;align=center;" vertex="1" parent="1">
          <mxGeometry x="140" y="100" width="100" height="40" as="geometry" />
        </mxCell>
        <mxCell id="FvkrAukKr_MfbtOGyrqa-2" value="tiene" style="shape=rhombus;perimeter=rhombusPerimeter;whiteSpace=wrap;html=1;align=center;" vertex="1" parent="1">
          <mxGeometry x="350" y="40" width="120" height="60" as="geometry" />
        </mxCell>
        <mxCell id="FvkrAukKr_MfbtOGyrqa-3" value="Cuenta" style="whiteSpace=wrap;html=1;align=center;" vertex="1" parent="1">
          <mxGeometry x="580" y="100" width="100" height="40" as="geometry" />
        </mxCell>
        <mxCell id="FvkrAukKr_MfbtOGyrqa-4" value="tiene" style="shape=rhombus;perimeter=rhombusPerimeter;whiteSpace=wrap;html=1;align=center;" vertex="1" parent="1">
          <mxGeometry x="680" y="290" width="120" height="60" as="geometry" />
        </mxCell>
        <mxCell id="FvkrAukKr_MfbtOGyrqa-5" value="Tipo" style="whiteSpace=wrap;html=1;align=center;" vertex="1" parent="1">
          <mxGeometry x="690" y="450" width="100" height="40" as="geometry" />
        </mxCell>
        <mxCell id="FvkrAukKr_MfbtOGyrqa-6" value="posee" style="shape=rhombus;perimeter=rhombusPerimeter;whiteSpace=wrap;html=1;align=center;" vertex="1" parent="1">
          <mxGeometry x="130" y="250" width="120" height="60" as="geometry" />
        </mxCell>
        <mxCell id="FvkrAukKr_MfbtOGyrqa-7" value="Tarjeta" style="whiteSpace=wrap;html=1;align=center;" vertex="1" parent="1">
          <mxGeometry x="310" y="340" width="100" height="40" as="geometry" />
        </mxCell>
        <mxCell id="FvkrAukKr_MfbtOGyrqa-8" value="tiene" style="shape=rhombus;perimeter=rhombusPerimeter;whiteSpace=wrap;html=1;align=center;" vertex="1" parent="1">
          <mxGeometry x="450" y="230" width="120" height="60" as="geometry" />
        </mxCell>
        <mxCell id="FvkrAukKr_MfbtOGyrqa-9" value="es autorizado" style="shape=rhombus;perimeter=rhombusPerimeter;whiteSpace=wrap;html=1;align=center;" vertex="1" parent="1">
          <mxGeometry x="350" y="140" width="120" height="60" as="geometry" />
        </mxCell>
        <mxCell id="FvkrAukKr_MfbtOGyrqa-10" value="" style="endArrow=none;html=1;rounded=0;exitX=1;exitY=0.25;exitDx=0;exitDy=0;entryX=0;entryY=0.5;entryDx=0;entryDy=0;" edge="1" parent="1" source="FvkrAukKr_MfbtOGyrqa-1" target="FvkrAukKr_MfbtOGyrqa-2">
          <mxGeometry relative="1" as="geometry">
            <mxPoint x="340" y="220" as="sourcePoint" />
            <mxPoint x="500" y="220" as="targetPoint" />
          </mxGeometry>
        </mxCell>
        <mxCell id="FvkrAukKr_MfbtOGyrqa-11" value="" style="endArrow=none;html=1;rounded=0;exitX=1;exitY=0.5;exitDx=0;exitDy=0;entryX=0;entryY=0.25;entryDx=0;entryDy=0;" edge="1" parent="1" source="FvkrAukKr_MfbtOGyrqa-2" target="FvkrAukKr_MfbtOGyrqa-3">
          <mxGeometry relative="1" as="geometry">
            <mxPoint x="340" y="220" as="sourcePoint" />
            <mxPoint x="500" y="220" as="targetPoint" />
          </mxGeometry>
        </mxCell>
        <mxCell id="FvkrAukKr_MfbtOGyrqa-12" value="" style="endArrow=none;html=1;rounded=0;exitX=1;exitY=0.75;exitDx=0;exitDy=0;entryX=0;entryY=0.5;entryDx=0;entryDy=0;" edge="1" parent="1" source="FvkrAukKr_MfbtOGyrqa-1" target="FvkrAukKr_MfbtOGyrqa-9">
          <mxGeometry relative="1" as="geometry">
            <mxPoint x="340" y="220" as="sourcePoint" />
            <mxPoint x="500" y="220" as="targetPoint" />
          </mxGeometry>
        </mxCell>
        <mxCell id="FvkrAukKr_MfbtOGyrqa-13" value="" style="endArrow=none;html=1;rounded=0;exitX=1;exitY=0.5;exitDx=0;exitDy=0;entryX=0;entryY=0.75;entryDx=0;entryDy=0;" edge="1" parent="1" source="FvkrAukKr_MfbtOGyrqa-9" target="FvkrAukKr_MfbtOGyrqa-3">
          <mxGeometry relative="1" as="geometry">
            <mxPoint x="340" y="220" as="sourcePoint" />
            <mxPoint x="500" y="220" as="targetPoint" />
          </mxGeometry>
        </mxCell>
        <mxCell id="FvkrAukKr_MfbtOGyrqa-14" value="" style="endArrow=none;html=1;rounded=0;exitX=0.5;exitY=1;exitDx=0;exitDy=0;entryX=0.5;entryY=0;entryDx=0;entryDy=0;" edge="1" parent="1" source="FvkrAukKr_MfbtOGyrqa-1" target="FvkrAukKr_MfbtOGyrqa-6">
          <mxGeometry relative="1" as="geometry">
            <mxPoint x="340" y="220" as="sourcePoint" />
            <mxPoint x="500" y="220" as="targetPoint" />
          </mxGeometry>
        </mxCell>
        <mxCell id="FvkrAukKr_MfbtOGyrqa-15" value="" style="endArrow=none;html=1;rounded=0;exitX=0.5;exitY=1;exitDx=0;exitDy=0;entryX=0;entryY=0.5;entryDx=0;entryDy=0;" edge="1" parent="1" source="FvkrAukKr_MfbtOGyrqa-6" target="FvkrAukKr_MfbtOGyrqa-7">
          <mxGeometry relative="1" as="geometry">
            <mxPoint x="340" y="220" as="sourcePoint" />
            <mxPoint x="500" y="220" as="targetPoint" />
          </mxGeometry>
        </mxCell>
        <mxCell id="FvkrAukKr_MfbtOGyrqa-16" value="" style="endArrow=none;html=1;rounded=0;exitX=1;exitY=0.5;exitDx=0;exitDy=0;entryX=0;entryY=1;entryDx=0;entryDy=0;" edge="1" parent="1" source="FvkrAukKr_MfbtOGyrqa-7" target="FvkrAukKr_MfbtOGyrqa-8">
          <mxGeometry relative="1" as="geometry">
            <mxPoint x="340" y="220" as="sourcePoint" />
            <mxPoint x="500" y="220" as="targetPoint" />
          </mxGeometry>
        </mxCell>
        <mxCell id="FvkrAukKr_MfbtOGyrqa-17" value="" style="endArrow=none;html=1;rounded=0;entryX=0.25;entryY=1;entryDx=0;entryDy=0;exitX=1;exitY=0;exitDx=0;exitDy=0;" edge="1" parent="1" source="FvkrAukKr_MfbtOGyrqa-8" target="FvkrAukKr_MfbtOGyrqa-3">
          <mxGeometry relative="1" as="geometry">
            <mxPoint x="340" y="220" as="sourcePoint" />
            <mxPoint x="500" y="220" as="targetPoint" />
          </mxGeometry>
        </mxCell>
        <mxCell id="FvkrAukKr_MfbtOGyrqa-18" value="" style="endArrow=none;html=1;rounded=0;entryX=0.75;entryY=1;entryDx=0;entryDy=0;exitX=0.5;exitY=0;exitDx=0;exitDy=0;" edge="1" parent="1" source="FvkrAukKr_MfbtOGyrqa-4" target="FvkrAukKr_MfbtOGyrqa-3">
          <mxGeometry relative="1" as="geometry">
            <mxPoint x="340" y="220" as="sourcePoint" />
            <mxPoint x="500" y="220" as="targetPoint" />
          </mxGeometry>
        </mxCell>
        <mxCell id="FvkrAukKr_MfbtOGyrqa-19" value="" style="endArrow=none;html=1;rounded=0;entryX=0.5;entryY=1;entryDx=0;entryDy=0;exitX=0.5;exitY=0;exitDx=0;exitDy=0;" edge="1" parent="1" source="FvkrAukKr_MfbtOGyrqa-5" target="FvkrAukKr_MfbtOGyrqa-4">
          <mxGeometry relative="1" as="geometry">
            <mxPoint x="340" y="220" as="sourcePoint" />
            <mxPoint x="500" y="220" as="targetPoint" />
          </mxGeometry>
        </mxCell>
        <mxCell id="FvkrAukKr_MfbtOGyrqa-20" value="Nombre" style="ellipse;whiteSpace=wrap;html=1;align=center;" vertex="1" parent="1">
          <mxGeometry x="20" y="140" width="100" height="40" as="geometry" />
        </mxCell>
        <mxCell id="FvkrAukKr_MfbtOGyrqa-21" value="DNI" style="ellipse;whiteSpace=wrap;html=1;align=center;fontStyle=4;" vertex="1" parent="1">
          <mxGeometry x="20" y="60" width="100" height="40" as="geometry" />
        </mxCell>
        <mxCell id="FvkrAukKr_MfbtOGyrqa-22" value="" style="endArrow=none;html=1;rounded=0;exitX=1;exitY=0.5;exitDx=0;exitDy=0;entryX=0;entryY=0.5;entryDx=0;entryDy=0;" edge="1" parent="1" source="FvkrAukKr_MfbtOGyrqa-21" target="FvkrAukKr_MfbtOGyrqa-1">
          <mxGeometry relative="1" as="geometry">
            <mxPoint x="340" y="220" as="sourcePoint" />
            <mxPoint x="500" y="220" as="targetPoint" />
          </mxGeometry>
        </mxCell>
        <mxCell id="FvkrAukKr_MfbtOGyrqa-23" value="" style="endArrow=none;html=1;rounded=0;exitX=1;exitY=0.5;exitDx=0;exitDy=0;entryX=0;entryY=0.5;entryDx=0;entryDy=0;" edge="1" parent="1" source="FvkrAukKr_MfbtOGyrqa-20" target="FvkrAukKr_MfbtOGyrqa-1">
          <mxGeometry relative="1" as="geometry">
            <mxPoint x="340" y="220" as="sourcePoint" />
            <mxPoint x="500" y="220" as="targetPoint" />
          </mxGeometry>
        </mxCell>
        <mxCell id="FvkrAukKr_MfbtOGyrqa-24" value="" style="endArrow=none;html=1;rounded=0;exitX=0.5;exitY=0;exitDx=0;exitDy=0;entryX=0.5;entryY=1;entryDx=0;entryDy=0;" edge="1" parent="1" source="FvkrAukKr_MfbtOGyrqa-29" target="FvkrAukKr_MfbtOGyrqa-30">
          <mxGeometry relative="1" as="geometry">
            <mxPoint x="340" y="220" as="sourcePoint" />
            <mxPoint x="500" y="220" as="targetPoint" />
          </mxGeometry>
        </mxCell>
        <mxCell id="FvkrAukKr_MfbtOGyrqa-25" value="Cod. cuenta" style="ellipse;whiteSpace=wrap;html=1;align=center;fontStyle=4;" vertex="1" parent="1">
          <mxGeometry x="530" y="20" width="100" height="40" as="geometry" />
        </mxCell>
        <mxCell id="FvkrAukKr_MfbtOGyrqa-26" value="Cod. entidad" style="ellipse;whiteSpace=wrap;html=1;align=center;" vertex="1" parent="1">
          <mxGeometry x="670" y="20" width="100" height="40" as="geometry" />
        </mxCell>
        <mxCell id="FvkrAukKr_MfbtOGyrqa-28" value="Digit. control" style="ellipse;whiteSpace=wrap;html=1;align=center;" vertex="1" parent="1">
          <mxGeometry x="720" y="70" width="100" height="40" as="geometry" />
        </mxCell>
        <mxCell id="FvkrAukKr_MfbtOGyrqa-29" value="Sucursal" style="whiteSpace=wrap;html=1;align=center;" vertex="1" parent="1">
          <mxGeometry x="540" y="400" width="100" height="40" as="geometry" />
        </mxCell>
        <mxCell id="FvkrAukKr_MfbtOGyrqa-30" value="gestiona" style="shape=rhombus;perimeter=rhombusPerimeter;whiteSpace=wrap;html=1;align=center;" vertex="1" parent="1">
          <mxGeometry x="530" y="300" width="120" height="60" as="geometry" />
        </mxCell>
        <mxCell id="FvkrAukKr_MfbtOGyrqa-31" value="" style="endArrow=none;html=1;rounded=0;entryX=0.5;entryY=1;entryDx=0;entryDy=0;exitX=0.5;exitY=0;exitDx=0;exitDy=0;" edge="1" parent="1" source="FvkrAukKr_MfbtOGyrqa-30" target="FvkrAukKr_MfbtOGyrqa-3">
          <mxGeometry relative="1" as="geometry">
            <mxPoint x="340" y="220" as="sourcePoint" />
            <mxPoint x="500" y="220" as="targetPoint" />
          </mxGeometry>
        </mxCell>
        <mxCell id="FvkrAukKr_MfbtOGyrqa-33" value="" style="endArrow=none;html=1;rounded=0;entryX=0.5;entryY=1;entryDx=0;entryDy=0;exitX=0.5;exitY=0;exitDx=0;exitDy=0;" edge="1" parent="1" source="FvkrAukKr_MfbtOGyrqa-3" target="FvkrAukKr_MfbtOGyrqa-25">
          <mxGeometry relative="1" as="geometry">
            <mxPoint x="340" y="220" as="sourcePoint" />
            <mxPoint x="500" y="220" as="targetPoint" />
          </mxGeometry>
        </mxCell>
        <mxCell id="FvkrAukKr_MfbtOGyrqa-34" value="" style="endArrow=none;html=1;rounded=0;entryX=0;entryY=1;entryDx=0;entryDy=0;exitX=0.5;exitY=0;exitDx=0;exitDy=0;" edge="1" parent="1" source="FvkrAukKr_MfbtOGyrqa-3" target="FvkrAukKr_MfbtOGyrqa-26">
          <mxGeometry relative="1" as="geometry">
            <mxPoint x="340" y="220" as="sourcePoint" />
            <mxPoint x="500" y="220" as="targetPoint" />
          </mxGeometry>
        </mxCell>
        <mxCell id="FvkrAukKr_MfbtOGyrqa-35" value="" style="endArrow=none;html=1;rounded=0;entryX=0;entryY=0.5;entryDx=0;entryDy=0;exitX=0.5;exitY=0;exitDx=0;exitDy=0;" edge="1" parent="1" source="FvkrAukKr_MfbtOGyrqa-3" target="FvkrAukKr_MfbtOGyrqa-28">
          <mxGeometry relative="1" as="geometry">
            <mxPoint x="340" y="220" as="sourcePoint" />
            <mxPoint x="500" y="220" as="targetPoint" />
          </mxGeometry>
        </mxCell>
        <mxCell id="FvkrAukKr_MfbtOGyrqa-36" value="Tipo_tarj" style="whiteSpace=wrap;html=1;align=center;" vertex="1" parent="1">
          <mxGeometry x="70" y="470" width="100" height="40" as="geometry" />
        </mxCell>
        <mxCell id="FvkrAukKr_MfbtOGyrqa-37" value="tiene" style="shape=rhombus;perimeter=rhombusPerimeter;whiteSpace=wrap;html=1;align=center;" vertex="1" parent="1">
          <mxGeometry x="300" y="460" width="120" height="60" as="geometry" />
        </mxCell>
        <mxCell id="FvkrAukKr_MfbtOGyrqa-38" value="" style="endArrow=none;html=1;rounded=0;exitX=1;exitY=0.5;exitDx=0;exitDy=0;entryX=0;entryY=0.5;entryDx=0;entryDy=0;" edge="1" parent="1" source="FvkrAukKr_MfbtOGyrqa-36" target="FvkrAukKr_MfbtOGyrqa-37">
          <mxGeometry relative="1" as="geometry">
            <mxPoint x="340" y="220" as="sourcePoint" />
            <mxPoint x="500" y="220" as="targetPoint" />
          </mxGeometry>
        </mxCell>
        <mxCell id="FvkrAukKr_MfbtOGyrqa-39" value="" style="endArrow=none;html=1;rounded=0;exitX=0.5;exitY=0;exitDx=0;exitDy=0;entryX=0.5;entryY=1;entryDx=0;entryDy=0;" edge="1" parent="1" source="FvkrAukKr_MfbtOGyrqa-37" target="FvkrAukKr_MfbtOGyrqa-7">
          <mxGeometry relative="1" as="geometry">
            <mxPoint x="340" y="220" as="sourcePoint" />
            <mxPoint x="500" y="220" as="targetPoint" />
          </mxGeometry>
        </mxCell>
        <mxCell id="FvkrAukKr_MfbtOGyrqa-40" value="Número" style="ellipse;whiteSpace=wrap;html=1;align=center;fontStyle=4;" vertex="1" parent="1">
          <mxGeometry x="130" y="360" width="100" height="40" as="geometry" />
        </mxCell>
        <mxCell id="FvkrAukKr_MfbtOGyrqa-41" value="" style="endArrow=none;html=1;rounded=0;exitX=1;exitY=0.5;exitDx=0;exitDy=0;entryX=0;entryY=1;entryDx=0;entryDy=0;" edge="1" parent="1" source="FvkrAukKr_MfbtOGyrqa-40" target="FvkrAukKr_MfbtOGyrqa-7">
          <mxGeometry relative="1" as="geometry">
            <mxPoint x="340" y="310" as="sourcePoint" />
            <mxPoint x="500" y="310" as="targetPoint" />
          </mxGeometry>
        </mxCell>
        <mxCell id="FvkrAukKr_MfbtOGyrqa-42" value="Condiciones" style="ellipse;whiteSpace=wrap;html=1;align=center;" vertex="1" parent="1">
          <mxGeometry x="180" y="410" width="100" height="40" as="geometry" />
        </mxCell>
        <mxCell id="FvkrAukKr_MfbtOGyrqa-43" value="" style="endArrow=none;html=1;rounded=0;entryX=0;entryY=1;entryDx=0;entryDy=0;exitX=1;exitY=0;exitDx=0;exitDy=0;" edge="1" parent="1" source="FvkrAukKr_MfbtOGyrqa-42" target="FvkrAukKr_MfbtOGyrqa-7">
          <mxGeometry relative="1" as="geometry">
            <mxPoint x="350" y="480" as="sourcePoint" />
            <mxPoint x="510" y="480" as="targetPoint" />
          </mxGeometry>
        </mxCell>
        <mxCell id="FvkrAukKr_MfbtOGyrqa-44" value="Tipo" style="ellipse;whiteSpace=wrap;html=1;align=center;fontStyle=4;" vertex="1" parent="1">
          <mxGeometry x="30" y="560" width="100" height="40" as="geometry" />
        </mxCell>
        <mxCell id="FvkrAukKr_MfbtOGyrqa-45" value="" style="endArrow=none;html=1;rounded=0;exitX=0.5;exitY=0;exitDx=0;exitDy=0;entryX=0.5;entryY=1;entryDx=0;entryDy=0;" edge="1" parent="1" source="FvkrAukKr_MfbtOGyrqa-44" target="FvkrAukKr_MfbtOGyrqa-36">
          <mxGeometry relative="1" as="geometry">
            <mxPoint x="350" y="480" as="sourcePoint" />
            <mxPoint x="510" y="480" as="targetPoint" />
          </mxGeometry>
        </mxCell>
        <mxCell id="FvkrAukKr_MfbtOGyrqa-46" value="Condiciones" style="ellipse;whiteSpace=wrap;html=1;align=center;" vertex="1" parent="1">
          <mxGeometry x="150" y="560" width="100" height="40" as="geometry" />
        </mxCell>
        <mxCell id="FvkrAukKr_MfbtOGyrqa-47" value="" style="endArrow=none;html=1;rounded=0;exitX=0.5;exitY=1;exitDx=0;exitDy=0;entryX=0.5;entryY=0;entryDx=0;entryDy=0;" edge="1" parent="1" source="FvkrAukKr_MfbtOGyrqa-36" target="FvkrAukKr_MfbtOGyrqa-46">
          <mxGeometry relative="1" as="geometry">
            <mxPoint x="350" y="480" as="sourcePoint" />
            <mxPoint x="510" y="480" as="targetPoint" />
          </mxGeometry>
        </mxCell>
        <mxCell id="FvkrAukKr_MfbtOGyrqa-48" value="Código" style="ellipse;whiteSpace=wrap;html=1;align=center;fontStyle=4;" vertex="1" parent="1">
          <mxGeometry x="460" y="480" width="100" height="40" as="geometry" />
        </mxCell>
        <mxCell id="FvkrAukKr_MfbtOGyrqa-49" value="Nombre" style="ellipse;whiteSpace=wrap;html=1;align=center;" vertex="1" parent="1">
          <mxGeometry x="530" y="520" width="100" height="40" as="geometry" />
        </mxCell>
        <mxCell id="FvkrAukKr_MfbtOGyrqa-50" value="" style="endArrow=none;html=1;rounded=0;entryX=0.5;entryY=1;entryDx=0;entryDy=0;exitX=0.5;exitY=0;exitDx=0;exitDy=0;" edge="1" parent="1" source="FvkrAukKr_MfbtOGyrqa-48" target="FvkrAukKr_MfbtOGyrqa-29">
          <mxGeometry relative="1" as="geometry">
            <mxPoint x="350" y="480" as="sourcePoint" />
            <mxPoint x="510" y="480" as="targetPoint" />
          </mxGeometry>
        </mxCell>
        <mxCell id="FvkrAukKr_MfbtOGyrqa-51" value="" style="endArrow=none;html=1;rounded=0;entryX=0.5;entryY=1;entryDx=0;entryDy=0;exitX=0.5;exitY=0;exitDx=0;exitDy=0;" edge="1" parent="1" source="FvkrAukKr_MfbtOGyrqa-49" target="FvkrAukKr_MfbtOGyrqa-29">
          <mxGeometry relative="1" as="geometry">
            <mxPoint x="350" y="480" as="sourcePoint" />
            <mxPoint x="510" y="480" as="targetPoint" />
          </mxGeometry>
        </mxCell>
        <mxCell id="FvkrAukKr_MfbtOGyrqa-52" value="Tipo" style="ellipse;whiteSpace=wrap;html=1;align=center;fontStyle=4;" vertex="1" parent="1">
          <mxGeometry x="640" y="560" width="100" height="40" as="geometry" />
        </mxCell>
        <mxCell id="FvkrAukKr_MfbtOGyrqa-53" value="Condiciones" style="ellipse;whiteSpace=wrap;html=1;align=center;" vertex="1" parent="1">
          <mxGeometry x="730" y="590" width="100" height="40" as="geometry" />
        </mxCell>
        <mxCell id="FvkrAukKr_MfbtOGyrqa-54" value="" style="endArrow=none;html=1;rounded=0;entryX=0.5;entryY=1;entryDx=0;entryDy=0;exitX=0.5;exitY=0;exitDx=0;exitDy=0;" edge="1" parent="1" source="FvkrAukKr_MfbtOGyrqa-52" target="FvkrAukKr_MfbtOGyrqa-5">
          <mxGeometry relative="1" as="geometry">
            <mxPoint x="350" y="440" as="sourcePoint" />
            <mxPoint x="510" y="440" as="targetPoint" />
          </mxGeometry>
        </mxCell>
        <mxCell id="FvkrAukKr_MfbtOGyrqa-55" value="" style="endArrow=none;html=1;rounded=0;entryX=0.5;entryY=1;entryDx=0;entryDy=0;exitX=0.5;exitY=0;exitDx=0;exitDy=0;" edge="1" parent="1" source="FvkrAukKr_MfbtOGyrqa-53" target="FvkrAukKr_MfbtOGyrqa-5">
          <mxGeometry relative="1" as="geometry">
            <mxPoint x="350" y="440" as="sourcePoint" />
            <mxPoint x="510" y="440" as="targetPoint" />
          </mxGeometry>
        </mxCell>
      </root>
    </mxGraphModel>
  </diagram>
</mxfile>
